# xmcd
#
# Track frame offsets:
#       150
#       10388
#       40030
#       53294
#       80325
#       110065
#       136212
#       176660
#       203475
#       238180
#
# Disc length: 3482 seconds
#
# Revision: 0
# Processed by: cddbd v1.4PL0 Copyright (c) Steve Scherf et al.
# Submitted via: CD-DA_X-Tractor v0.23
#
DISCID=780d980a
DTITLE=Eugene H. Peterson - The Message - disk07
DYEAR=2003
DGENRE=Bible
TTITLE0=John Intro
TTITLE1=John 01
TTITLE2=John 02
TTITLE3=John 03
TTITLE4=John 04
TTITLE5=John 05
TTITLE6=John 06
TTITLE7=John 07
TTITLE8=John 08
TTITLE9=John 09
EXTD=
EXTT0=
EXTT1=
EXTT2=
EXTT3=
EXTT4=
EXTT5=
EXTT6=
EXTT7=
EXTT8=
EXTT9=
PLAYORDER=
